# xmcd CD database file
#
# Track frame offsets:
#	150
#	8275
#	34234
#	54423
#	80185
#
# Disc length: 1357 seconds
#
# Revision: 0
# Processed by: cddbd v1.5.1PL2 Copyright (c) Steve Scherf et al.
# Submitted via: CDex 1.51
#
DISCID=31054b05
DTITLE=encounter+ - empty ocean
DYEAR=2005
DGENRE=JPop
TTITLE0=NOAH
TTITLE1=桃梨/empty ocean
TTITLE2=桃梨/青い鳥になりたい
TTITLE3=桃梨/My Ripple-地球の沈黙-
TTITLE4=桃梨/モノローグ
EXTD=YEAR: 2005
EXTT0=
EXTT1=
EXTT2=
EXTT3=
EXTT4=
PLAYORDER=
